<svg width="800" height="800" viewBox="0 0 800 800" fill="none" xmlns="http://www.w3.org/2000/svg">
<path d="M208.281 187.266C197.5 187.266 192.109 179.609 188.203 173.984C184.219 168.281 182.188 166.016 178.281 166.016C174.375 166.016 172.422 168.359 168.359 173.984C164.375 179.609 158.984 187.266 148.281 187.266C137.5 187.266 132.109 179.609 128.203 173.984C124.219 168.281 122.187 166.016 118.281 166.016C114.375 166.016 112.422 168.359 108.359 173.984C104.375 179.609 98.9844 187.266 88.2813 187.266C77.5781 187.266 72.1094 179.609 68.2031 173.984C64.2188 168.281 62.1875 166.016 58.2812 166.016C54.8437 166.016 52.0312 163.203 52.0312 159.766C52.0312 156.328 54.8437 153.516 58.2812 153.516C69.0625 153.516 74.4531 161.172 78.3594 166.797C82.3438 172.5 84.375 174.766 88.2813 174.766C92.1875 174.766 94.1406 172.422 98.2031 166.797C102.187 161.172 107.578 153.516 118.281 153.516C128.984 153.516 134.453 161.172 138.359 166.797C142.344 172.5 144.375 174.766 148.281 174.766C152.188 174.766 154.141 172.422 158.203 166.797C162.187 161.172 167.578 153.516 178.281 153.516C188.984 153.516 194.453 161.172 198.359 166.797C202.344 172.5 204.375 174.766 208.281 174.766C211.719 174.766 214.531 177.578 214.531 181.016C214.531 184.453 211.719 187.266 208.281 187.266ZM208.281 226.328C197.5 226.328 192.109 218.672 188.203 213.047C184.219 207.344 182.188 205.078 178.281 205.078C174.375 205.078 172.422 207.422 168.359 213.047C164.375 218.672 158.984 226.328 148.281 226.328C137.5 226.328 132.109 218.672 128.203 213.047C124.219 207.344 122.187 205.078 118.281 205.078C114.375 205.078 112.422 207.422 108.359 213.047C104.375 218.672 98.9844 226.328 88.2813 226.328C77.5781 226.328 72.1094 218.672 68.2031 213.047C64.2188 207.344 62.1875 205.078 58.2812 205.078C54.8437 205.078 52.0312 202.266 52.0312 198.828C52.0312 195.391 54.8437 192.578 58.2812 192.578C69.0625 192.578 74.4531 200.234 78.3594 205.859C82.3438 211.563 84.375 213.828 88.2813 213.828C92.1875 213.828 94.1406 211.484 98.2031 205.859C102.187 200.234 107.578 192.578 118.281 192.578C128.984 192.578 134.453 200.234 138.359 205.859C142.344 211.563 144.375 213.828 148.281 213.828C152.188 213.828 154.141 211.484 158.203 205.859C162.187 200.234 167.578 192.578 178.281 192.578C188.984 192.578 194.453 200.234 198.359 205.859C202.344 211.563 204.375 213.828 208.281 213.828C211.719 213.828 214.531 216.641 214.531 220.078C214.531 223.516 211.719 226.328 208.281 226.328ZM745.781 547.422C735 547.422 729.609 539.766 725.703 534.141C721.719 528.438 719.688 526.172 715.781 526.172C711.875 526.172 709.922 528.516 705.859 534.141C701.875 539.766 696.484 547.422 685.781 547.422C675 547.422 669.609 539.766 665.703 534.141C661.719 528.438 659.688 526.172 655.781 526.172C651.875 526.172 649.922 528.516 645.859 534.141C641.875 539.766 636.484 547.422 625.781 547.422C615.078 547.422 609.609 539.766 605.703 534.141C601.719 528.438 599.688 526.172 595.781 526.172C592.344 526.172 589.531 523.359 589.531 519.922C589.531 516.484 592.344 513.672 595.781 513.672C606.563 513.672 611.953 521.328 615.859 526.953C619.844 532.656 621.875 534.922 625.781 534.922C629.688 534.922 631.641 532.578 635.703 526.953C639.688 521.328 645.078 513.672 655.781 513.672C666.484 513.672 671.953 521.328 675.859 526.953C679.844 532.656 681.875 534.922 685.781 534.922C689.688 534.922 691.641 532.578 695.703 526.953C699.688 521.328 705.078 513.672 715.781 513.672C726.484 513.672 731.953 521.328 735.859 526.953C739.844 532.656 741.875 534.922 745.781 534.922C749.219 534.922 752.031 537.734 752.031 541.172C752.031 544.609 749.219 547.422 745.781 547.422ZM745.781 586.484C735 586.484 729.609 578.828 725.703 573.203C721.719 567.5 719.688 565.234 715.781 565.234C711.875 565.234 709.922 567.578 705.859 573.203C701.875 578.828 696.484 586.484 685.781 586.484C675 586.484 669.609 578.828 665.703 573.203C661.719 567.5 659.688 565.234 655.781 565.234C651.875 565.234 649.922 567.578 645.859 573.203C641.875 578.828 636.484 586.484 625.781 586.484C615.078 586.484 609.609 578.828 605.703 573.203C601.719 567.5 599.688 565.234 595.781 565.234C592.344 565.234 589.531 562.422 589.531 558.984C589.531 555.547 592.344 552.734 595.781 552.734C606.563 552.734 611.953 560.391 615.859 566.016C619.844 571.719 621.875 573.984 625.781 573.984C629.688 573.984 631.641 571.641 635.703 566.016C639.688 560.391 645.078 552.734 655.781 552.734C666.484 552.734 671.953 560.391 675.859 566.016C679.844 571.719 681.875 573.984 685.781 573.984C689.688 573.984 691.641 571.641 695.703 566.016C699.688 560.391 705.078 552.734 715.781 552.734C726.484 552.734 731.953 560.391 735.859 566.016C739.844 571.719 741.875 573.984 745.781 573.984C749.219 573.984 752.031 576.797 752.031 580.234C752.031 583.672 749.219 586.484 745.781 586.484Z" fill="#9A2D2F"/>
<path d="M248.125 82.8906C248.125 89.521 250.759 95.8799 255.447 100.568C260.136 105.257 266.495 107.891 273.125 107.891C279.755 107.891 286.114 105.257 290.803 100.568C295.491 95.8799 298.125 89.521 298.125 82.8906C298.125 76.2602 295.491 69.9014 290.803 65.213C286.114 60.5245 279.755 57.8906 273.125 57.8906C266.495 57.8906 260.136 60.5245 255.447 65.213C250.759 69.9014 248.125 76.2602 248.125 82.8906Z" fill="#FFEB4D"/>
<path d="M273.125 114.141C255.859 114.141 241.875 100.156 241.875 82.8906C241.875 65.625 255.859 51.6406 273.125 51.6406C290.391 51.6406 304.375 65.625 304.375 82.8906C304.375 100.156 290.391 114.141 273.125 114.141ZM273.125 64.1406C262.813 64.1406 254.375 72.5781 254.375 82.8906C254.375 93.2031 262.813 101.641 273.125 101.641C283.437 101.641 291.875 93.2031 291.875 82.8906C291.875 72.5781 283.437 64.1406 273.125 64.1406Z" fill="#9A2D2F"/>
<path d="M451.172 464.141H134.766V507.891H534.766V464.141H451.172Z" fill="#FFE0B6"/>
<path d="M134.766 394.609H534.766V438.359H134.766V394.609Z" fill="#DAE5FF"/>
<path d="M559.766 599.297H109.766L134.766 557.109H534.766L559.766 599.297Z" fill="#FFD7F5"/>
<path d="M452.734 125.781L435.078 108.125L449.453 93.75C454.297 88.9062 462.266 88.9062 467.109 93.75C471.953 98.5937 471.953 106.563 467.109 111.406L452.734 125.781Z" fill="#DAE5FF"/>
<path d="M443.594 117.266C419.219 92.8906 379.609 92.8906 355.234 117.266L443.594 205.625C467.969 181.25 467.969 141.719 443.594 117.266Z" fill="#FFACC2"/>
<path d="M723.828 714.14H582.5L582.109 121.406C582.109 119.062 580.781 116.875 578.672 115.781L487.422 70.3904C484.531 68.906 481.016 69.9998 479.297 72.7342L466.25 85.781C459.297 82.4998 450.703 83.6717 444.922 89.4529L432.812 101.562C406.641 86.9529 372.891 90.781 350.703 112.969C349.531 114.14 348.906 115.703 348.906 117.422C348.906 119.14 349.531 120.703 350.703 121.875L439.062 210.234C440.234 211.406 441.797 212.031 443.516 212.031C445.234 212.031 446.797 211.406 447.969 210.234C470.156 188.047 473.984 154.297 459.375 128.125L471.484 116.015C475 112.5 476.953 107.812 476.953 102.734C476.953 99.9217 476.328 97.1092 475.156 94.6873L486.016 83.8279L569.609 125.469L570 714.297H494.141V605.703H559.766C562.031 605.703 564.062 604.531 565.234 602.578C566.328 600.625 566.328 598.203 565.156 596.328L540.156 554.14C539.063 552.265 536.953 551.094 534.766 551.094H451.172V514.375H534.766C538.203 514.375 541.016 511.562 541.016 508.125V464.375C541.016 460.937 538.203 458.125 534.766 458.125H451.172V444.844H534.766C538.203 444.844 541.016 442.031 541.016 438.594V394.844C541.016 391.406 538.203 388.594 534.766 388.594H134.766C131.328 388.594 128.516 391.406 128.516 394.844V438.594C128.516 442.031 131.328 444.844 134.766 444.844H219.141V458.125H134.766C131.328 458.125 128.516 460.937 128.516 464.375V508.125C128.516 511.562 131.328 514.375 134.766 514.375H219.141V551.094H134.766C132.578 551.094 130.547 552.265 129.375 554.14L104.375 596.328C103.203 598.281 103.203 600.625 104.297 602.578C105.391 604.531 107.5 605.703 109.766 605.703H175.391V714.297H80.0781C76.6406 714.297 73.8281 717.109 73.8281 720.547C73.8281 723.984 76.6406 726.797 80.0781 726.797H723.828C727.266 726.797 730.078 723.984 730.078 720.547C730.078 717.109 727.344 714.14 723.828 714.14ZM443.281 196.562L364.219 117.5C386.25 99.8435 418.672 101.25 439.141 121.64C459.609 142.109 460.938 174.531 443.281 196.562ZM462.656 107.031L452.734 116.953L443.906 108.125L453.828 98.2029C456.25 95.781 460.234 95.781 462.656 98.2029C463.828 99.3748 464.453 100.937 464.453 102.656C464.453 104.297 463.828 105.859 462.656 107.031ZM141.016 432.109V400.859H528.516V432.109H141.016ZM438.672 444.609V457.89H231.641V444.609H438.672ZM141.016 501.64V470.39H528.516V501.64H141.016ZM438.672 514.14V550.859H231.641V514.14H438.672ZM120.781 593.047L138.359 563.359H531.25L548.828 593.047H120.781ZM187.891 605.547H481.641V714.14H187.891V605.547Z" fill="#9A2D2F"/>
<path d="M364.219 117.5L389.141 142.422C403.125 132.578 414.063 122.187 414.063 107.187C397.188 102.656 378.594 106.094 364.219 117.5ZM256.172 572.031C270.234 572.422 283.594 582.734 307.109 578.984C316.094 577.5 326.016 569.062 350.234 570.625C367.422 571.719 389.297 570.234 403.594 563.359H238.438C238.516 570.859 249.141 571.875 256.172 572.031ZM155.078 563.359H138.359L127.969 580.937C138.984 578.984 149.141 573.906 155.078 563.359ZM531.25 563.359C531.25 563.359 532.031 576.328 513.828 575.547C495.625 574.765 490.781 571.562 473.672 571.562C457.891 571.562 450.625 563.281 450.625 563.281H531.25V563.359Z" fill="white"/>
</svg>
