<svg width="50" height="54" viewBox="0 0 50 54" fill="none" xmlns="http://www.w3.org/2000/svg">
<path d="M24.6289 18.3098C24.2871 15.6927 22.3926 13.5931 20.3906 13.5247C18.3985 13.4661 17.0606 15.4681 17.4024 18.0852C17.7442 20.7024 19.6387 22.8802 21.6406 22.9388C23.6426 23.0071 24.9805 20.927 24.6289 18.3098Z" fill="white"/>
<path d="M23.3105 28.3402C22.7246 28.1546 22.0801 28.0375 21.3867 28.0277C18.418 27.9984 15.752 29.8441 15.752 32.0511C15.752 34.307 17.9004 36.1917 20.8691 36.1917C25.0488 36.1917 26.5039 34.4242 26.5039 32.1683C26.5039 31.8949 26.4746 31.6312 26.4063 31.3675C26.0742 30.098 24.9219 29.4632 23.3105 28.3402Z" fill="white"/>
<path d="M25 0C11.1914 0 0 11.1914 0 25C0 38.8086 11.1914 50 25 50C38.8086 50 50 38.8086 50 25C50 11.1914 38.8086 0 25 0ZM20.8789 37.4316C16.582 37.4316 12.9492 35.6836 12.9492 32.8906C12.9492 30.0488 16.2598 27.3145 20.5566 27.3145C21.0254 27.3145 21.4551 27.3047 21.8945 27.3047C21.3086 26.7285 20.8398 26.0254 20.8398 25.166C20.8398 24.6582 21.0059 24.1602 21.2305 23.7207C20.9961 23.7402 20.7617 23.7402 20.5176 23.7402C16.9824 23.7402 14.6191 21.2305 14.6191 18.1152C14.6191 15.0684 17.8906 12.4414 21.3574 12.4414H29.1016L27.373 13.6816H24.9219C26.5527 14.3066 27.4219 16.2109 27.4219 18.1543C27.4219 19.7852 26.5137 21.1914 25.2344 22.1973C23.9844 23.1738 23.75 23.584 23.75 24.4141C23.75 25.127 25.0879 26.3281 25.791 26.8262C27.8418 28.2715 28.4961 29.6191 28.4961 31.8555C28.4863 34.6484 25.7812 37.4316 20.8789 37.4316ZM37.0508 25.5957H34.0332V28.6133H31.6113V25.5957H28.5937V23.1738H31.6113V20.1562H34.0332V23.1738H37.0508V25.5957Z" fill="white"/>
</svg>
