<svg width="50" height="50" viewBox="0 0 50 50" fill="none" xmlns="http://www.w3.org/2000/svg">
<g clip-path="url(#clip0_581_6007)">
<path d="M25 29.3945C27.4219 29.3945 29.4043 27.4219 29.4043 24.9902C29.4043 24.0332 29.0918 23.1445 28.5742 22.4219C27.7734 21.3184 26.4746 20.5859 25.0098 20.5859C23.5449 20.5859 22.2461 21.3086 21.4453 22.4219C20.9277 23.1445 20.6152 24.0332 20.6152 24.9902C20.6055 27.4219 22.5781 29.3945 25 29.3945Z" fill="white"/>
<path d="M34.6094 19.6191V15.9277V15.3809H34.0625L30.3711 15.3906L30.3906 19.6289L34.6094 19.6191Z" fill="white"/>
<path d="M31.8359 25C31.8359 28.7695 28.7695 31.8359 25 31.8359C21.2305 31.8359 18.1641 28.7695 18.1641 25C18.1641 24.0918 18.3496 23.2227 18.6719 22.4316H14.9414V32.666C14.9414 33.9844 16.0156 35.0586 17.334 35.0586H32.666C33.9844 35.0586 35.0586 33.9844 35.0586 32.666V22.4316H31.3281C31.6602 23.2227 31.8359 24.0918 31.8359 25Z" fill="white"/>
<path d="M25 0C11.1914 0 0 11.1914 0 25C0 38.8086 11.1914 50 25 50C38.8086 50 50 38.8086 50 25C50 11.1914 38.8086 0 25 0ZM37.5 22.4316V32.666C37.5 35.332 35.332 37.5 32.666 37.5H17.334C14.668 37.5 12.5 35.332 12.5 32.666V22.4316V17.3242C12.5 14.6582 14.668 12.4902 17.334 12.4902H32.666C35.332 12.4902 37.5 14.6582 37.5 17.3242V22.4316Z" fill="white"/>
</g>
<defs>
<clipPath id="clip0_581_6007">
<rect width="50" height="50" fill="white"/>
</clipPath>
</defs>
</svg>
