<svg width="50" height="50" viewBox="0 0 50 50" fill="none" xmlns="http://www.w3.org/2000/svg">
<path d="M25 0C11.1914 0 0 11.1914 0 25C0 38.8086 11.1914 50 25 50C38.8086 50 50 38.8086 50 25C50 11.1914 38.8086 0 25 0ZM25 37.4316C23.7695 37.4316 22.5781 37.2461 21.4551 36.9141C21.9336 36.1621 22.4512 35.1953 22.7148 34.2383C22.8711 33.6816 23.5938 30.8008 23.5938 30.8008C24.0234 31.6309 25.293 32.3535 26.6504 32.3535C30.6738 32.3535 33.3984 28.6914 33.3984 23.7891C33.3984 20.0781 30.2539 16.6309 25.4883 16.6309C19.5508 16.6309 16.5527 20.8887 16.5527 24.4434C16.5527 26.5918 17.3633 28.5059 19.1113 29.2188C19.3945 29.3359 19.6484 29.2188 19.7363 28.9062C19.7949 28.6914 19.9316 28.1348 19.9902 27.9004C20.0781 27.5879 20.0391 27.4805 19.8145 27.207C19.3164 26.6113 18.9941 25.8496 18.9941 24.7559C18.9941 21.6016 21.3574 18.7695 25.1465 18.7695C28.5059 18.7695 30.3516 20.8203 30.3516 23.5547C30.3516 27.1582 28.7598 30.1953 26.3867 30.1953C25.0781 30.1953 24.1016 29.1113 24.4141 27.793C24.7852 26.2109 25.5176 24.502 25.5176 23.3594C25.5176 22.334 24.9707 21.4844 23.8281 21.4844C22.4902 21.4844 21.416 22.8711 21.416 24.7168C21.416 25.8984 21.8164 26.6895 21.8164 26.6895C21.8164 26.6895 20.4492 32.4902 20.2051 33.4961C19.9805 34.4434 19.9512 35.4981 19.9902 36.3672C15.5762 34.4531 12.5 30.0488 12.5 24.9316C12.5 18.0273 18.0957 12.4316 25 12.4316C31.9043 12.4316 37.5 18.0273 37.5 24.9316C37.5 31.8359 31.9043 37.4316 25 37.4316Z" fill="white"/>
</svg>
