<svg width="50" height="50" viewBox="0 0 50 50" fill="none" xmlns="http://www.w3.org/2000/svg">
<path d="M25 0C11.1914 0 0 11.1914 0 25C0 38.8086 11.1914 50 25 50C38.8086 50 50 38.8086 50 25C50 11.1914 38.8086 0 25 0ZM37.207 24.8047C37.1973 24.8242 37.1777 24.8535 37.1777 24.873C37.041 25.7324 36.6309 26.416 35.957 26.9629C35.9082 27.002 35.8887 27.1094 35.8984 27.1777C35.9961 28.3984 35.7422 29.5313 35.127 30.5859C34.2871 32.0215 33.0664 33.0371 31.6309 33.8281C29.6777 34.9023 27.5586 35.4199 25.3418 35.5469C22.793 35.6934 20.332 35.3125 17.998 34.2676C16.4355 33.5742 15.0586 32.6172 14.0332 31.2207C13.1348 30 12.6855 28.6426 12.8418 27.1191C12.8516 27.041 12.7832 26.9434 12.7148 26.8848C12.3145 26.543 11.9922 26.1426 11.8066 25.6445C11.709 25.3711 11.6406 25.0879 11.5625 24.8145C11.5625 24.5605 11.5625 24.3164 11.5625 24.0625C11.7188 23.6328 11.8164 23.1738 12.041 22.7832C12.9395 21.2402 14.9609 20.7715 16.4648 21.7383C16.6211 21.8359 16.7285 21.8359 16.8848 21.748C18.6816 20.7031 20.6348 20.166 22.6953 19.9609C22.998 19.9316 23.3105 19.9121 23.623 19.9023C23.7793 19.9023 23.8477 19.834 23.9062 19.6875C24.5215 17.9102 25.1562 16.1328 25.7812 14.3555C25.8105 14.2773 25.8398 14.1992 25.8789 14.1016C26.543 14.2578 27.1973 14.4141 27.8516 14.5703C28.7402 14.7852 29.6387 14.9902 30.5273 15.2148C30.6934 15.2539 30.7715 15.2344 30.8691 15.0879C31.5234 14.0625 32.7246 13.623 33.877 13.9648C35.0098 14.3066 35.7812 15.3613 35.7812 16.5625C35.7715 17.8613 34.7559 19.0137 33.4863 19.1602C32.0996 19.3262 30.8203 18.457 30.5371 17.1387C30.4785 16.8555 30.3711 16.7383 30.0781 16.6699C29.0137 16.4355 27.959 16.1719 26.8652 15.918C26.3965 17.2461 25.9375 18.5645 25.4687 19.8926C26.0547 19.9707 26.6211 20.0293 27.1875 20.1172C28.8672 20.3906 30.4492 20.9277 31.9238 21.7871C32.0508 21.8652 32.1387 21.875 32.2754 21.7871C34.2383 20.5176 36.7578 21.6113 37.1875 23.916C37.1973 23.9551 37.2168 23.9941 37.2363 24.0234C37.207 24.2676 37.207 24.5312 37.207 24.8047Z" fill="white"/>
</svg>
