<svg width="50" height="50" viewBox="0 0 50 50" fill="none" xmlns="http://www.w3.org/2000/svg">
<g clip-path="url(#clip0_581_6003)">
<path d="M21.6699 29.8145L29.8535 25.0098L21.6699 20.2051V29.8145Z" fill="white"/>
<path d="M25 0C11.1914 0 0 11.1914 0 25C0 38.8086 11.1914 50 25 50C38.8086 50 50 38.8086 50 25C50 11.1914 38.8086 0 25 0ZM37.5 29.4727C37.5 33.7793 33.1934 33.7793 33.1934 33.7793H16.8066C12.5 33.7793 12.5 29.4727 12.5 29.4727V20.5371C12.5 16.2305 16.8066 16.2305 16.8066 16.2305H33.1934C37.5 16.2305 37.5 20.5371 37.5 20.5371V29.4727Z" fill="white"/>
</g>
<defs>
<clipPath id="clip0_581_6003">
<rect width="50" height="50" fill="white"/>
</clipPath>
</defs>
</svg>
