<svg width="33" height="28" viewBox="0 0 33 28" fill="none" xmlns="http://www.w3.org/2000/svg">
<path d="M2.72375 3.43945H6.12844L8.85219 19.4903H23.1519M23.1519 19.4903C21.6475 19.4903 20.4281 20.5169 20.4281 21.7833C20.4281 23.0497 21.6475 24.0763 23.1519 24.0763C24.6562 24.0763 25.8756 23.0497 25.8756 21.7833C25.8756 20.5169 24.6562 19.4903 23.1519 19.4903ZM8.26852 16.0509H24.5137L28.5994 5.73244H6.51754M14.9806 21.7833C14.9806 23.0497 13.7612 24.0763 12.2569 24.0763C10.7526 24.0763 9.53312 23.0497 9.53312 21.7833C9.53312 20.5169 10.7526 19.4903 12.2569 19.4903C13.7612 19.4903 14.9806 20.5169 14.9806 21.7833Z" stroke="white" stroke-width="1.82161" stroke-linecap="round" stroke-linejoin="round"/>
</svg>
