<svg width="60" height="54" viewBox="0 0 60 54" fill="none" xmlns="http://www.w3.org/2000/svg">
<g clip-path="url(#clip0_112_5434)">
<path d="M60 26.973C60 12.0825 46.56 0 30 0C13.44 0 0 12.0825 0 26.973C0 35.1743 4.14 42.5655 10.62 47.5267C10.68 47.5807 10.74 47.5808 10.74 47.6348C11.28 48.0128 11.82 48.3908 12.42 48.7688C12.72 48.9308 12.96 49.1434 13.26 49.3594C18.2178 52.3846 24.0702 54.0012 30.06 54C36.0498 54.0012 41.9022 52.3846 46.86 49.3594C47.16 49.1974 47.4 48.9848 47.7 48.8194C48.24 48.4448 48.84 48.0668 49.38 47.6888C49.44 47.6348 49.5 47.6348 49.5 47.5807C55.86 42.5621 60 35.1743 60 26.973ZM30 50.6014C24.36 50.6014 19.2 48.9814 14.94 46.2848C15 45.8528 15.12 45.4241 15.24 44.9921C15.5975 43.8214 16.1219 42.6971 16.8 41.6475C17.46 40.6215 18.24 39.7035 19.2 38.8935C20.1 38.0835 21.18 37.3309 22.26 36.7369C23.4 36.1429 24.6 35.7109 25.92 35.3869C27.2503 35.0642 28.6223 34.9019 30 34.9043C34.0899 34.8782 38.0296 36.2902 40.98 38.8395C42.36 40.0815 43.44 41.5395 44.22 43.2101C44.64 44.1821 44.94 45.2081 45.12 46.2848C40.6919 49.0865 35.4129 50.5937 30 50.6014ZM20.82 25.6264C20.2913 24.537 20.0255 23.3591 20.04 22.1704C20.04 20.9858 20.28 19.7978 20.82 18.7178C21.36 17.6378 22.08 16.6691 22.98 15.8591C23.88 15.0491 24.96 14.4045 26.16 13.9185C27.36 13.4325 28.68 13.2165 30 13.2165C31.38 13.2165 32.64 13.4325 33.84 13.9185C35.04 14.4045 36.12 15.0525 37.02 15.8591C37.92 16.6691 38.64 17.6411 39.18 18.7178C39.72 19.7978 39.96 20.9858 39.96 22.1704C39.96 23.4124 39.72 24.5464 39.18 25.623C38.6589 26.687 37.9269 27.6568 37.02 28.485C36.0995 29.3 35.022 29.9576 33.84 30.4256C31.3606 31.3427 28.5794 31.3427 26.1 30.4256C24.918 29.9576 23.8405 29.3 22.92 28.485C22.0118 27.6689 21.2973 26.6986 20.82 25.6264ZM48.66 43.5341C48.66 43.4261 48.6 43.3721 48.6 43.2641C48.0099 41.5747 47.1401 39.9749 46.02 38.5189C44.8988 37.052 43.521 35.7584 41.94 34.6883C40.7326 33.8708 39.4238 33.1821 38.04 32.6362C38.6696 32.2625 39.2529 31.8291 39.78 31.3436C40.6745 30.5488 41.4601 29.6605 42.12 28.6976C43.4489 26.7327 44.1351 24.4704 44.1 22.1704C44.1186 20.4677 43.7511 18.7796 43.02 17.2091C42.2982 15.6959 41.2593 14.322 39.96 13.1625C38.6627 12.0151 37.1358 11.099 35.46 10.4625C33.7121 9.8057 31.834 9.47613 29.94 9.49387C28.0458 9.4772 26.1676 9.80792 24.42 10.4659C22.7297 11.101 21.1992 12.0365 19.92 13.2165C18.6452 14.3829 17.6272 15.7559 16.92 17.2631C16.1889 18.8336 15.8214 20.5217 15.84 22.2244C15.84 23.4124 16.02 24.5464 16.38 25.623C16.74 26.757 17.22 27.783 17.88 28.7516C18.48 29.7236 19.32 30.5876 20.22 31.3976C20.76 31.8836 21.36 32.3123 22.02 32.6903C20.6319 33.2507 19.3227 33.9577 18.12 34.7963C16.56 35.8763 15.18 37.1689 14.04 38.5729C12.9085 40.0229 12.0378 41.6243 11.46 43.3181C11.4 43.4261 11.4 43.5341 11.4 43.5881C6.66 39.2715 3.72 33.4463 3.72 26.973C3.72 13.9725 15.54 3.34462 30 3.34462C44.46 3.34462 56.28 13.9725 56.28 26.973C56.2722 33.1829 53.5324 39.1373 48.66 43.5341Z" fill="black"/>
</g>
<defs>
<clipPath id="clip0_112_5434">
<rect width="60" height="54" fill="white"/>
</clipPath>
</defs>
</svg>
