<svg width="69" height="62" viewBox="0 0 69 62" fill="none" xmlns="http://www.w3.org/2000/svg">
<path d="M5.82373 22.8526C5.82373 33.9068 16.1333 44.7793 32.3918 54.1208C33.0271 54.4581 33.8935 54.8214 34.5 54.8214C35.1065 54.8214 35.9728 54.4581 36.5793 54.1208C52.8666 44.7793 63.1763 33.9068 63.1763 22.8526C63.1763 13.6669 56.1587 7.17969 46.8021 7.17969C41.4308 7.17969 37.0991 9.46317 34.5 12.9662C31.9009 9.48908 27.5403 7.17969 22.1978 7.17969C12.8413 7.17969 5.82373 13.6669 5.82373 22.8526ZM10.4732 22.8526C10.4732 15.9504 15.4402 11.3574 22.14 11.3574C27.5692 11.3574 30.6592 14.3934 32.5362 16.9883C33.3159 18.0263 33.8069 18.3117 34.5 18.3117C35.1931 18.3117 35.6263 18.0002 36.4637 16.9883C38.4275 14.4453 41.4596 11.3574 46.8599 11.3574C53.5597 11.3574 58.5268 15.9504 58.5268 22.8526C58.5268 32.5056 47.1775 42.9109 35.0775 50.1247C34.7887 50.3063 34.6155 50.4361 34.5 50.4361C34.3844 50.4361 34.1824 50.3063 33.8935 50.1247C21.8224 42.9109 10.4732 32.5056 10.4732 22.8526Z" fill="black"/>
</svg>
