<svg width="79" height="65" viewBox="0 0 79 65" fill="none" xmlns="http://www.w3.org/2000/svg">
<path d="M71.3914 32.4033C71.2655 31.6355 70.7199 30.9875 69.9299 30.5711C69.4065 30.2948 68.7572 30.2928 68.2091 30.4858C68.2017 28.8283 68.2091 27.1708 68.1573 25.5153C68.1055 23.6567 68.2289 21.8002 68.3128 19.9456C68.3425 19.3342 67.866 18.8061 67.2266 18.5461C67.1698 17.8473 67.1105 17.1486 67.0365 16.4519C66.9896 16.0355 66.9476 15.6191 66.876 15.2067C66.8612 15.1255 66.8489 15.0442 66.8341 14.963C66.797 14.7477 66.6785 14.3759 66.5304 14.2114C66.3156 13.9798 66.1329 13.7219 65.7996 13.5898C65.5552 13.4944 65.3207 13.4009 65.0541 13.3705C64.7949 13.338 64.5282 13.338 64.2665 13.3136C64.2098 12.6291 64.1653 11.9445 64.1283 11.26C64.2221 11.0833 64.274 10.8923 64.274 10.6933C64.274 9.89094 63.4617 9.23484 62.4965 9.22672C60.5091 9.21453 58.5218 9.23891 56.5344 9.16984C54.7471 9.10891 52.9621 9.02359 51.1674 8.99312C47.3976 8.93625 43.6204 8.95859 39.8457 8.93625C36.1425 8.91594 32.4444 8.855 28.7338 8.84687C26.9242 8.84484 25.1146 8.81641 23.3075 8.81641C21.5646 8.81641 19.8192 8.84281 18.0787 8.94234C16.158 9.05406 14.2126 9.41562 12.445 10.0494C10.7194 10.6628 9.16899 11.8856 8.63327 13.3928C8.48761 13.8052 8.41355 14.2256 8.3469 14.6542C8.29011 15.0016 8.24074 15.357 8.29011 15.7064C8.35183 16.1431 8.43824 16.5656 8.57896 16.9841C7.9988 17.2258 7.59146 17.7133 7.58405 18.2759C7.55936 19.8969 7.56924 21.5158 7.53221 23.1327C7.50011 24.6033 7.45815 26.0719 7.4384 27.5384C7.4063 30.5081 7.38655 33.4737 7.4384 36.4455C7.47543 38.5092 7.53221 40.573 7.54208 42.6367C7.5569 44.7086 7.58899 46.7825 7.53221 48.8584C7.5248 49.1164 7.63589 49.348 7.78896 49.5592C8.16174 50.3514 8.5518 51.1477 9.05789 51.887C9.26527 52.1877 9.52696 52.4659 9.77877 52.7442C10.0133 52.9981 10.2528 53.25 10.4922 53.4998C10.8576 53.8817 11.4057 54.1823 11.8945 54.4403C12.9857 55.0273 14.2571 55.4011 15.5384 55.5859C16.6493 55.7444 17.7701 55.8988 18.8959 55.9556C20.94 56.0552 22.994 56.0673 25.0455 56.0978C26.9958 56.1242 28.9461 56.1547 30.8915 56.1527C32.8789 56.1527 34.8613 56.1344 36.8461 56.1445C38.8384 56.1608 40.8258 56.2095 42.8181 56.175C44.8721 56.1445 46.9211 56.0755 48.9726 56.0511C50.9452 56.0247 52.9301 56.0328 54.9026 56.0328C56.7862 56.0328 58.6724 56.0328 60.5511 56.0125C61.4324 56.0044 62.3138 56.0125 63.2001 56.0206C64.1283 56.0288 65.0565 56.0369 65.9897 56.0247C66.6242 56.0186 67.1772 55.7586 67.5525 55.3767C68.0289 55.0964 68.3671 54.6637 68.3548 54.158C68.3128 52.4111 68.335 50.6642 68.3128 48.9153C68.2807 46.9084 68.3178 44.9056 68.3597 42.9008C68.9448 42.8277 69.4682 42.6875 69.9546 42.3523C71.0383 41.6048 71.2951 40.3231 71.4086 39.2283C71.4802 38.5498 71.4802 37.8673 71.5123 37.1848C71.5642 36.1428 71.6259 35.0906 71.5815 34.0445C71.5568 33.4961 71.4802 32.9477 71.3914 32.4033ZM19.0168 17.9469C19.0242 17.7986 19.0341 17.6483 18.9946 17.4959C18.9847 17.4573 18.9773 17.4167 18.9675 17.3781C18.9181 16.7566 18.9428 16.1309 18.9502 15.5053C22.562 15.5906 26.1762 15.5927 29.7929 15.6069C31.6544 15.615 33.5158 15.6536 35.3772 15.6922C37.1029 15.7308 38.8236 15.8344 40.5493 15.8811C42.344 15.9319 44.1438 15.9542 45.946 15.9847C47.7457 16.0152 49.5503 16.0456 51.35 16.0578C53.1819 16.07 55.0161 16.0842 56.8455 16.0883C58.4576 16.0923 60.0721 16.1492 61.6842 16.1573C62.2817 16.1594 62.8766 16.1777 63.4691 16.2142C63.5679 16.9312 63.6321 17.6503 63.6592 18.3734C62.6989 18.3897 61.7361 18.3816 60.7807 18.3734C58.9859 18.3531 57.1886 18.3084 55.3939 18.3003C51.7895 18.2841 48.1925 18.1845 44.5881 18.1622C40.7542 18.1398 36.9227 18.1662 33.0887 18.0545C30.6224 17.9855 28.1512 17.9895 25.6874 17.9936C24.3691 17.9936 23.0532 17.9977 21.7399 17.9855C20.8314 17.9753 19.9229 17.9652 19.0168 17.9469ZM67.6882 39.7605C67.6882 39.7605 67.6956 39.7544 67.7006 39.7503C67.6981 39.7544 67.6932 39.7584 67.6882 39.7605ZM67.2093 33.3641C67.3377 33.3722 67.4636 33.3661 67.5845 33.3498C67.6586 34.2416 67.6463 35.1353 67.6265 36.0311C67.6166 36.5978 67.6043 37.1645 67.5895 37.7353C67.5821 38.2898 67.592 38.8444 67.5302 39.3948C67.5006 39.5228 67.4661 39.6487 67.4241 39.7747C66.7402 39.8031 66.049 39.7848 65.3676 39.7706C64.5381 39.7544 63.7086 39.7483 62.8791 39.7483C61.0399 39.7483 59.1933 39.7523 57.3689 39.5817C56.8134 39.5005 56.2752 39.3847 55.7469 39.2242C55.2161 39.017 54.7298 38.7773 54.2582 38.497C54.0805 38.3691 53.9101 38.237 53.7472 38.0969C53.6485 37.9709 53.5621 37.843 53.4781 37.7109C53.3917 37.52 53.3127 37.327 53.2485 37.1259C53.209 36.673 53.2263 36.2302 53.2855 35.7792C53.3843 35.2958 53.5053 34.8164 53.7077 34.3533C53.7744 34.2456 53.846 34.1441 53.9225 34.0445C54.0163 33.9673 54.1101 33.8922 54.2089 33.8231C54.3965 33.7277 54.5891 33.6403 54.789 33.5591C55.2754 33.4148 55.7691 33.3052 56.2826 33.23C57.085 33.163 57.8848 33.1488 58.6921 33.1325C59.5537 33.1122 60.4178 33.0858 61.2794 33.0858C63.2593 33.0777 65.2417 33.2402 67.2093 33.3641ZM12.0846 14.8289C12.1414 14.577 12.2105 14.3312 12.3092 14.0895C12.3784 13.9758 12.4549 13.8681 12.5364 13.7625C12.7511 13.5634 12.9807 13.3766 13.2251 13.2019C13.5387 13.0252 13.8646 12.8789 14.2102 12.7428C15.3828 12.3752 16.6147 12.1456 17.8491 11.9912C19.5353 11.843 21.214 11.7759 22.9076 11.7658C24.6974 11.7577 26.4897 11.7434 28.2796 11.7394C29.9485 11.7394 31.6173 11.7475 33.2911 11.7556C35.2933 11.7638 37.3004 11.7739 39.305 11.7637C43.0649 11.7455 46.8248 11.7373 50.5847 11.7983C52.3845 11.8287 54.1792 11.8592 55.9814 11.9567C57.4651 12.042 58.9513 12.0705 60.4375 12.103C60.4721 12.4625 60.5017 12.8241 60.5511 13.1856C60.3857 13.1856 60.2203 13.1816 60.0549 13.1836C56.5394 13.2019 53.0239 13.2445 49.5059 13.2019C47.6445 13.1836 45.783 13.1511 43.9265 13.1023C42.1688 13.0597 40.416 13.0475 38.6607 12.9906C36.8659 12.9317 35.0736 12.8708 33.2788 12.8525C31.484 12.8302 29.6868 12.8322 27.892 12.8139C24.5444 12.7712 21.1967 12.6717 17.8541 12.5559C17.8318 12.5559 17.8096 12.5539 17.7874 12.5539C16.9233 12.5539 16.2296 13.1552 16.1136 13.8356C15.5927 14.1098 15.2224 14.5648 15.2248 15.1011C15.2298 15.9948 15.2495 16.8947 15.3878 17.7844C15.3137 17.7722 15.2347 17.7742 15.1557 17.7661C14.583 17.693 14.0151 17.6137 13.4646 17.4634C13.2869 17.3883 13.119 17.305 12.9511 17.2116C12.8622 17.1466 12.7808 17.0795 12.7018 17.0064C12.5685 16.8297 12.4574 16.6489 12.3537 16.462C12.2302 16.1939 12.134 15.9258 12.0624 15.6455C12.0401 15.3713 12.0525 15.1031 12.0846 14.8289ZM60.3857 52.7523C58.4675 52.7909 56.5468 52.7869 54.6286 52.8214C50.5255 52.8864 46.4249 53.0022 42.3169 53.0266C40.4135 53.0347 38.5051 53.0692 36.6017 53.057C34.5774 53.0489 32.5555 53.0266 30.536 53.0225C28.6277 53.0184 26.7193 53.0387 24.811 53.0448C22.757 53.0489 20.6906 53.057 18.6465 52.8905C18.4836 52.8763 18.3206 52.8641 18.1577 52.8498C17.0443 52.7198 15.9235 52.5573 14.8718 52.2364C14.4521 52.0658 14.0472 51.8769 13.6621 51.6595C13.3955 51.4666 13.161 51.2573 12.9363 51.0339C12.7388 50.8186 12.5462 50.5972 12.366 50.3677C12.171 50.1117 12.0179 49.8294 11.8698 49.5511C11.6995 49.2058 11.5365 48.8564 11.3761 48.505C11.2798 48.2958 11.1613 48.1109 11.0107 47.9464C10.986 45.3302 10.986 42.7159 10.944 40.1038C10.9169 38.6534 10.8823 37.1991 10.8601 35.7488C10.8329 34.2598 10.8551 32.7669 10.8502 31.278C10.8502 29.1472 10.8453 27.0164 10.9119 24.8836C10.9613 23.2261 11.023 21.5706 11.0773 19.9131C11.1958 19.9741 11.3119 20.0411 11.4304 20.0959C12.4154 20.5428 13.5165 20.6545 14.6126 20.7642C15.531 20.8577 16.4543 20.8983 17.3825 20.9267C19.2242 20.9816 21.0733 20.9613 22.9199 20.9613C24.8653 20.9613 26.8057 20.943 28.7511 20.9348C30.6644 20.9227 32.5678 20.9958 34.4786 21.0466C36.3203 21.0933 38.1645 21.0933 40.0111 21.0933C41.9244 21.0892 43.8401 21.077 45.7534 21.0811C47.6296 21.0852 49.5034 21.1766 51.3747 21.27C54.8902 21.4406 58.4206 21.4508 61.941 21.4853C62.773 21.4934 63.6173 21.4853 64.4591 21.4569C64.4073 24.3555 64.4542 27.2561 64.469 30.1547C63.3161 30.11 62.1632 30.043 61.0078 30.0328C60.1215 30.0247 59.2352 30.0023 58.3539 29.9902C58.265 29.9881 58.1786 29.9881 58.0897 29.9881C57.1072 29.9881 56.137 30.0653 55.1618 30.1709C54.1027 30.2908 53.0239 30.6462 52.1154 31.1053C51.4365 31.4486 50.9575 31.9077 50.4786 32.4216C50.1774 32.7445 49.9996 33.2016 49.8318 33.5713C49.6491 33.9694 49.5503 34.3959 49.4516 34.8144C49.1973 35.8869 49.0763 36.9736 49.3479 38.0542C49.4146 38.3244 49.5454 38.5864 49.6664 38.8444C49.9676 39.4883 50.3749 40.0205 50.9378 40.5344C51.3821 40.9427 51.9796 41.2595 52.5227 41.5723C52.8733 41.7734 53.2584 41.938 53.6485 42.0863C54.2015 42.2914 54.7742 42.5067 55.3692 42.6266C56.4233 42.8419 57.5244 42.913 58.6082 42.9617C59.8228 43.0166 61.0448 43.0084 62.2693 43.0003C62.7853 42.9963 63.3062 42.9922 63.8246 42.9922C64.0419 42.9922 64.2567 42.9942 64.4739 42.9963C64.4468 46.23 64.5727 49.4617 64.6048 52.6934C63.2001 52.7056 61.7929 52.7259 60.3857 52.7523ZM59.5759 36.2891C59.5759 37.1645 58.6896 37.8958 57.6231 37.8958C56.5591 37.8958 55.6704 37.1666 55.6704 36.2891C55.6704 35.4136 56.5566 34.6823 57.6231 34.6823C58.6872 34.6823 59.5759 35.4136 59.5759 36.2891Z" fill="black"/>
</svg>
