<svg width="87" height="82" viewBox="0 0 87 82" fill="none" xmlns="http://www.w3.org/2000/svg">
<path d="M86.5742 37.1548L75.7319 24.8278C75.3803 24.4284 74.8578 24.1966 74.3065 24.1966H56.2775V18.9225C56.2775 17.9591 55.4488 17.1777 54.4263 17.1777H1.85097C0.828986 17.1777 0 17.9591 0 18.9225V53.8041C0 54.7675 0.828986 55.5489 1.85097 55.5489H4.74612C4.91834 60.6901 9.40577 64.8226 14.9015 64.8226C20.3972 64.8226 24.8847 60.6901 25.0569 55.5489H54.4265C54.5005 55.5489 54.5731 55.5437 54.6449 55.5357V55.5489H62.2249C62.3971 60.6901 66.8844 64.8226 72.3803 64.8226C77.8764 64.8226 82.3636 60.6901 82.5358 55.5489H85.1488C86.171 55.5489 87 54.7677 87 53.8041V38.2681C87 37.862 86.8491 37.4674 86.5742 37.1548ZM14.9017 61.3332C11.3388 61.3332 8.44024 58.6011 8.44024 55.243C8.44024 51.8848 11.3388 49.1527 14.9017 49.1527C18.4646 49.1527 21.3631 51.8848 21.3631 55.243C21.3631 58.6011 18.4646 61.3332 14.9017 61.3332ZM52.5753 52.0595H24.4861C23.0905 48.3377 19.3223 45.6635 14.9017 45.6635C10.4808 45.6635 6.71267 48.3377 5.3173 52.0595H3.70229V20.6673H52.5755L52.5753 52.0595ZM83.2979 38.8977V39.7922H64.8478V27.6859H73.437L83.2979 38.8977ZM72.3803 61.3332C68.8174 61.3332 65.9187 58.6011 65.9187 55.243C65.9187 54.8848 66.4559 49.1527 72.3803 49.1527C78.3538 49.1527 78.8419 54.8817 78.8419 55.243C78.8421 58.6013 75.9434 61.3332 72.3803 61.3332ZM81.9682 52.0595C80.5556 48.2874 76.7178 45.6635 72.3803 45.6635C68.0175 45.6635 64.206 48.2797 62.7978 52.0595H56.2775V27.6859H61.1455V41.5369C61.1455 42.5005 61.9744 43.2815 62.9967 43.2815H83.2979V52.0595H81.9682Z" fill="black"/>
<path d="M43.3022 25.4238H10.3988V28.9132H43.3022V25.4238Z" fill="black"/>
<path d="M43.3022 36.6855H10.3988V40.1749H43.3022V36.6855Z" fill="black"/>
</svg>
